{
 "cells": [
  {
   "cell_type": "code",
   "execution_count": 1,
   "id": "bc702c8b-7003-4939-9464-1b20e5e46ab4",
   "metadata": {},
   "outputs": [],
   "source": [
    "import streamlit as st\n",
    "import os \n",
    "import gym_super_mario_bros\n",
    "from nes_py.wrappers import JoypadSpace\n",
    "from gym_super_mario_bros.actions import SIMPLE_MOVEMENT\n",
    "from stable_baselines3 import PPO\n",
    "import IPython.display as display\n",
    "import ipywidgets as widgets\n",
    "import cv2\n",
    "import time\n",
    "import subprocess\n",
    "import os\n",
    "\n",
    "from gym.wrappers import GrayScaleObservation\n",
    "from stable_baselines3.common.vec_env import VecFrameStack, DummyVecEnv\n",
    "from matplotlib import pyplot as plt"
   ]
  },
  {
   "cell_type": "code",
   "execution_count": 2,
   "id": "336377f4-177a-4fd5-9947-87c3791ac359",
   "metadata": {
    "scrolled": true
   },
   "outputs": [
    {
     "name": "stderr",
     "output_type": "stream",
     "text": [
      "MESA: error: Failed to query drm device.\n",
      "libGL error: glx: failed to create dri3 screen\n",
      "libGL error: failed to load driver: iris\n",
      "libGL error: failed to open /dev/dri/card0: No such file or directory\n",
      "libGL error: failed to load driver: iris\n",
      "/usr/local/lib/python3.8/site-packages/gym_super_mario_bros/smb_env.py:148: RuntimeWarning: overflow encountered in scalar subtract\n",
      "  return (self.ram[0x86] - self.ram[0x071c]) % 256\n",
      "ffmpeg version 4.4.2-0ubuntu0.22.04.1 Copyright (c) 2000-2021 the FFmpeg developers\n",
      "  built with gcc 11 (Ubuntu 11.2.0-19ubuntu1)\n",
      "  configuration: --prefix=/usr --extra-version=0ubuntu0.22.04.1 --toolchain=hardened --libdir=/usr/lib/x86_64-linux-gnu --incdir=/usr/include/x86_64-linux-gnu --arch=amd64 --enable-gpl --disable-stripping --enable-gnutls --enable-ladspa --enable-libaom --enable-libass --enable-libbluray --enable-libbs2b --enable-libcaca --enable-libcdio --enable-libcodec2 --enable-libdav1d --enable-libflite --enable-libfontconfig --enable-libfreetype --enable-libfribidi --enable-libgme --enable-libgsm --enable-libjack --enable-libmp3lame --enable-libmysofa --enable-libopenjpeg --enable-libopenmpt --enable-libopus --enable-libpulse --enable-librabbitmq --enable-librubberband --enable-libshine --enable-libsnappy --enable-libsoxr --enable-libspeex --enable-libsrt --enable-libssh --enable-libtheora --enable-libtwolame --enable-libvidstab --enable-libvorbis --enable-libvpx --enable-libwebp --enable-libx265 --enable-libxml2 --enable-libxvid --enable-libzimg --enable-libzmq --enable-libzvbi --enable-lv2 --enable-omx --enable-openal --enable-opencl --enable-opengl --enable-sdl2 --enable-pocketsphinx --enable-librsvg --enable-libmfx --enable-libdc1394 --enable-libdrm --enable-libiec61883 --enable-chromaprint --enable-frei0r --enable-libx264 --enable-shared\n",
      "  libavutil      56. 70.100 / 56. 70.100\n",
      "  libavcodec     58.134.100 / 58.134.100\n",
      "  libavformat    58. 76.100 / 58. 76.100\n",
      "  libavdevice    58. 13.100 / 58. 13.100\n",
      "  libavfilter     7.110.100 /  7.110.100\n",
      "  libswscale      5.  9.100 /  5.  9.100\n",
      "  libswresample   3.  9.100 /  3.  9.100\n",
      "  libpostproc    55.  9.100 / 55.  9.100\n",
      "Input #0, mov,mp4,m4a,3gp,3g2,mj2, from '/workspaces/supermario-rl/streamlit/pages/SuperMarioBros-v0_temp.mp4':\n",
      "  Metadata:\n",
      "    major_brand     : isom\n",
      "    minor_version   : 512\n",
      "    compatible_brands: isomiso2mp41\n",
      "    encoder         : Lavf59.27.100\n",
      "  Duration: 00:00:12.50, start: 0.000000, bitrate: 1234 kb/s\n",
      "  Stream #0:0(und): Video: mpeg4 (Simple Profile) (mp4v / 0x7634706D), yuv420p, 640x480 [SAR 1:1 DAR 4:3], 1233 kb/s, 24 fps, 24 tbr, 12288 tbn, 24 tbc (default)\n",
      "    Metadata:\n",
      "      handler_name    : VideoHandler\n",
      "      vendor_id       : [0][0][0][0]\n",
      "Codec AVOption b (set bitrate (in bits/s)) specified for output file #0 (/workspaces/supermario-rl/streamlit/pages/SuperMarioBros-v0.mp4) has not been used for any stream. The most likely reason is either wrong type (e.g. a video option with no video streams) or that it is a private option of some encoder which was not actually used for any stream.\n",
      "Stream mapping:\n",
      "  Stream #0:0 -> #0:0 (mpeg4 (native) -> h264 (libx264))\n",
      "Press [q] to stop, [?] for help\n",
      "[libx264 @ 0x5b7735483800] using SAR=1/1\n",
      "[libx264 @ 0x5b7735483800] using cpu capabilities: MMX2 SSE2Fast SSSE3 SSE4.2 AVX FMA3 BMI2 AVX2\n",
      "[libx264 @ 0x5b7735483800] profile High, level 3.0, 4:2:0, 8-bit\n",
      "[libx264 @ 0x5b7735483800] 264 - core 163 r3060 5db6aa6 - H.264/MPEG-4 AVC codec - Copyleft 2003-2021 - http://www.videolan.org/x264.html - options: cabac=1 ref=3 deblock=1:0:0 analyse=0x3:0x113 me=hex subme=7 psy=1 psy_rd=1.00:0.00 mixed_ref=1 me_range=16 chroma_me=1 trellis=1 8x8dct=1 cqm=0 deadzone=21,11 fast_pskip=1 chroma_qp_offset=-2 threads=15 lookahead_threads=2 sliced_threads=0 nr=0 decimate=1 interlaced=0 bluray_compat=0 constrained_intra=0 bframes=3 b_pyramid=2 b_adapt=1 b_bias=0 direct=1 weightb=1 open_gop=0 weightp=2 keyint=250 keyint_min=24 scenecut=40 intra_refresh=0 rc_lookahead=40 rc=crf mbtree=1 crf=23.0 qcomp=0.60 qpmin=0 qpmax=69 qpstep=4 ip_ratio=1.40 aq=1:1.00\n",
      "Output #0, mp4, to '/workspaces/supermario-rl/streamlit/pages/SuperMarioBros-v0.mp4':\n",
      "  Metadata:\n",
      "    major_brand     : isom\n",
      "    minor_version   : 512\n",
      "    compatible_brands: isomiso2mp41\n",
      "    encoder         : Lavf58.76.100\n",
      "  Stream #0:0(und): Video: h264 (avc1 / 0x31637661), yuv420p(progressive), 640x480 [SAR 1:1 DAR 4:3], q=2-31, 24 fps, 12288 tbn (default)\n",
      "    Metadata:\n",
      "      handler_name    : VideoHandler\n",
      "      vendor_id       : [0][0][0][0]\n",
      "      encoder         : Lavc58.134.100 libx264\n",
      "    Side data:\n",
      "      cpb: bitrate max/min/avg: 0/0/0 buffer size: 0 vbv_delay: N/A\n",
      "frame=  300 fps=0.0 q=-1.0 Lsize=     449kB time=00:00:12.37 bitrate= 297.1kbits/s speed=26.6x    \n",
      "video:445kB audio:0kB subtitle:0kB other streams:0kB global headers:0kB muxing overhead: 0.838998%\n",
      "[libx264 @ 0x5b7735483800] frame I:2     Avg QP:12.79  size: 28968\n",
      "[libx264 @ 0x5b7735483800] frame P:163   Avg QP:19.18  size:  2245\n",
      "[libx264 @ 0x5b7735483800] frame B:135   Avg QP:19.49  size:   231\n",
      "[libx264 @ 0x5b7735483800] consecutive B-frames: 30.0% 22.7% 22.0% 25.3%\n",
      "[libx264 @ 0x5b7735483800] mb I  I16..4: 34.5% 51.0% 14.4%\n",
      "[libx264 @ 0x5b7735483800] mb P  I16..4:  0.3%  1.2%  0.2%  P16..4: 15.9%  2.0%  1.7%  0.0%  0.0%    skip:78.7%\n",
      "[libx264 @ 0x5b7735483800] mb B  I16..4:  0.2%  0.1%  0.0%  B16..8:  8.3%  0.5%  0.1%  direct: 0.1%  skip:90.7%  L0:54.2% L1:45.0% BI: 0.8%\n",
      "[libx264 @ 0x5b7735483800] 8x8 transform intra:61.2% inter:63.7%\n",
      "[libx264 @ 0x5b7735483800] coded y,uvDC,uvAC intra: 18.2% 33.6% 29.3% inter: 2.2% 7.7% 5.6%\n",
      "[libx264 @ 0x5b7735483800] i16 v,h,dc,p: 71% 21%  8%  0%\n",
      "[libx264 @ 0x5b7735483800] i8 v,h,dc,ddl,ddr,vr,hd,vl,hu: 22%  6% 66%  1%  1%  1%  2%  1%  1%\n",
      "[libx264 @ 0x5b7735483800] i4 v,h,dc,ddl,ddr,vr,hd,vl,hu: 35% 26% 21%  3%  2%  2%  4%  4%  4%\n",
      "[libx264 @ 0x5b7735483800] i8c dc,h,v,p: 59% 24% 14%  2%\n",
      "[libx264 @ 0x5b7735483800] Weighted P-Frames: Y:0.0% UV:0.0%\n",
      "[libx264 @ 0x5b7735483800] ref P L0: 63.5%  1.9% 23.1% 11.5%\n",
      "[libx264 @ 0x5b7735483800] ref B L0: 74.7% 23.6%  1.7%\n",
      "[libx264 @ 0x5b7735483800] ref B L1: 99.0%  1.0%\n",
      "[libx264 @ 0x5b7735483800] kb/s:291.26\n"
     ]
    }
   ],
   "source": [
    "supermario_version = \"SuperMarioBros-v0\"\n",
    "\n",
    "env = gym_super_mario_bros.make(supermario_version)\n",
    "env = JoypadSpace(env, SIMPLE_MOVEMENT)\n",
    "\n",
    "fourcc = cv2.VideoWriter_fourcc(*'mp4v')  # Codec for mp4\n",
    "fps = 24.0  # Frames per second\n",
    "frame_size = (640, 480)\n",
    "out = cv2.VideoWriter(f'{supermario_version}_temp.mp4', fourcc, fps, frame_size)\n",
    "\n",
    "done = True\n",
    "frames = []\n",
    "\n",
    "for _ in range(300):\n",
    "    if done:\n",
    "        state = env.reset()\n",
    "    action = env.action_space.sample()\n",
    "    state, reward, done, info = env.step(action)\n",
    "    env.render()\n",
    "    \n",
    "    frame = cv2.resize(state, frame_size)\n",
    "    out.write(cv2.cvtColor(frame, cv2.COLOR_RGB2BGR))\n",
    "\n",
    "out.release()\n",
    "\n",
    "current_dir = os.getcwd()\n",
    "\n",
    "input_file = os.path.join(current_dir, f\"{supermario_version}_temp.mp4\")\n",
    "output_file = os.path.join(current_dir, f\"{supermario_version}.mp4\")\n",
    "\n",
    "try:\n",
    "    os.remove(output_file)\n",
    "except:\n",
    "    pass\n",
    "\n",
    "ffmpeg_command = [\n",
    "    \"ffmpeg\",\n",
    "    \"-i\", input_file,\n",
    "    \"-c:v\", \"libx264\",\n",
    "    \"-crf\", \"23\",\n",
    "    \"-preset\", \"medium\",\n",
    "    \"-c:a\", \"aac\",\n",
    "    \"-b:a\", \"128k\",\n",
    "    output_file\n",
    "]\n",
    "\n",
    "subprocess.run(ffmpeg_command)\n",
    "\n",
    "try:\n",
    "    os.remove(input_file)\n",
    "except:\n",
    "    pass"
   ]
  }
 ],
 "metadata": {
  "kernelspec": {
   "display_name": "Python 3 (ipykernel)",
   "language": "python",
   "name": "python3"
  },
  "language_info": {
   "codemirror_mode": {
    "name": "ipython",
    "version": 3
   },
   "file_extension": ".py",
   "mimetype": "text/x-python",
   "name": "python",
   "nbconvert_exporter": "python",
   "pygments_lexer": "ipython3",
   "version": "3.8.10"
  }
 },
 "nbformat": 4,
 "nbformat_minor": 5
}
